<svg xmlns="http://www.w3.org/2000/svg" viewBox="0 0 600 460" width="600" height="460">
  
  <rect width="600" height="460" fill="#0E1B30"></rect>
  <defs>
    <linearGradient id="plat" x1="0" y1="0" x2="0.25" y2="1">
      <stop offset="0%" stop-color="#F3F5F8"></stop><stop offset="42%" stop-color="#AEB5C0"></stop>
      <stop offset="72%" stop-color="#E4E8ED"></stop><stop offset="100%" stop-color="#9AA1AD"></stop>
    </linearGradient>
  </defs>
  <g fill="url(#plat)" transform="translate(170 60) scale(1.45)">
  <path d="M56 3 Q57.6 15.5 63.2 20 Q57.6 24.5 56 35 Q54.4 24.5 48.8 20 Q54.4 15.5 56 3 Z"></path>
  <path d="M56 38 L58.7 62 L53.3 62 Z"></path>
  <path d="M56 57 C51 75 47 90 43 103 C41.8 106.4 38.6 106.6 38.2 103.2 C40 91.5 46 74 56 57 Z"></path>
  <path d="M56 57 C61 75 65 90 69 103 C70.2 106.4 73.4 106.6 73.8 103.2 C72 91.5 66 74 56 57 Z"></path>
  </g>
  <text x="300" y="350" text-anchor="middle" font-family="&#39;Cormorant Garamond&#39;, Georgia, serif" font-weight="500" font-size="74" letter-spacing="13" fill="#ECEFF3">ASTRADA</text>
  <g>
    <line x1="232" y1="392" x2="270" y2="392" stroke="rgba(201,206,215,0.35)" stroke-width="1"></line>
    <text x="300" y="397" text-anchor="middle" font-family="Arial, Helvetica, sans-serif" font-size="15" letter-spacing="7" fill="#9BA3B0">CLUB</text>
    <line x1="330" y1="392" x2="368" y2="392" stroke="rgba(201,206,215,0.35)" stroke-width="1"></line>
  </g>
</svg>