<svg xmlns="http://www.w3.org/2000/svg" viewBox="0 0 32 32" width="32" height="32">
  <rect width="32" height="32" rx="7" fill="#0E1B30"/>
  <defs>
    <linearGradient id="g" x1="0" y1="0" x2="0.25" y2="1">
      <stop offset="0%" stop-color="#F3F5F8"/>
      <stop offset="42%" stop-color="#AEB5C0"/>
      <stop offset="72%" stop-color="#E4E8ED"/>
      <stop offset="100%" stop-color="#9AA1AD"/>
    </linearGradient>
  </defs>
  <g fill="url(#g)" transform="translate(4.8 4.2) scale(0.2)">
    <path d="M56 3 Q57.6 15.5 63.2 20 Q57.6 24.5 56 35 Q54.4 24.5 48.8 20 Q54.4 15.5 56 3 Z"/>
    <path d="M56 38 L58.7 62 L53.3 62 Z"/>
    <path d="M56 57 C51 75 47 90 43 103 C41.8 106.4 38.6 106.6 38.2 103.2 C40 91.5 46 74 56 57 Z"/>
    <path d="M56 57 C61 75 65 90 69 103 C70.2 106.4 73.4 106.6 73.8 103.2 C72 91.5 66 74 56 57 Z"/>
  </g>
</svg>
